<svg id="レイヤー_1" data-name="レイヤー 1" xmlns="http://www.w3.org/2000/svg" viewBox="0 0 1011.66211 206.67453"><defs><style>
  
  .cls-1{fill:red;}.cls-2{fill:lime;}.cls-3{fill:blue;}


</style></defs><title>名称未設定-232</title><path d="M49.1123,104.85742c-.56542-3.62109-2.376-8.93945-4.97851-15.27637L27.83887,50.76758c-2.15039-5.0918-3.16895-8.14746-5.77149-17.31348.45215,5.99805.90528,15.27637.90528,17.7666V88.33691a103.41168,103.41168,0,0,0,.90527,16.52051H8.03516a106.0292,106.0292,0,0,0,.90527-16.52051V31.53027A112.14478,112.14478,0,0,0,8.03516,14.7832h20.709A78.303,78.303,0,0,0,32.93066,28.249L55.90234,84.376,78.75977,28.249A62.68271,62.68271,0,0,0,82.834,14.7832h20.82129A117.22633,117.22633,0,0,0,102.75,31.53027V88.33691c0,8.26075.22656,12.334.90527,16.52051H87.8125a105.10671,105.10671,0,0,0,.90527-16.52051V50.76758c.45313-9.84473.792-15.61621.90528-17.31348A138.12686,138.12686,0,0,1,84.418,49.97559l-16.97363,39.832a92.16989,92.16989,0,0,0-4.9795,15.0498Z" transform="translate(-8.03516 -13.31152)"/><path d="M115.99316,72.49414c0-21.04785,13.126-34.51367,33.72071-34.51367,20.48242,0,33.49511,13.35254,33.49511,34.28711s-13.23925,34.74023-33.38183,34.74023C129.11914,107.00781,115.99316,93.65527,115.99316,72.49414Zm14.59668,0c0,13.91895,7.24219,22.51856,19.01075,22.51856s19.01074-8.48633,19.01074-22.292c0-14.59765-6.90235-22.97168-18.89746-22.97168C137.832,49.749,130.58984,58.34961,130.58984,72.49414Z" transform="translate(-8.03516 -13.31152)"/><path d="M239.67773,61.63086c-1.24414-3.50781-2.03711-5.0918-3.50781-6.90234-2.71582-3.39551-6.67676-5.20606-11.65527-5.20606-11.08985,0-17.99219,8.71387-17.99219,22.74512,0,14.14551,7.01563,22.8584,18.44434,22.8584,5.6582,0,10.18457-2.2627,13.01367-6.33692a15.82493,15.82493,0,0,0,2.26367-5.6582L254.27539,85.96c-1.584,4.52637-2.71582,6.90332-4.75293,9.61914-5.43164,7.46778-14.14453,11.42871-24.89453,11.42871-19.916,0-32.81641-13.46582-32.81641-34.40039,0-10.63672,3.39453-19.80273,9.61817-26.13965,5.54492-5.6582,13.46679-8.60058,22.74511-8.60058,11.08985,0,19.916,4.30078,25.34766,12.22168a37.6011,37.6011,0,0,1,3.96094,8.26074Z" transform="translate(-8.03516 -13.31152)"/><path d="M281.43555,14.7832a108.80378,108.80378,0,0,0-.792,14.93653V45.90137a46.36329,46.36329,0,0,1-.22656,4.86621c7.0166-8.82617,13.127-11.99512,23.42383-11.99512,14.48438,0,22.74512,8.26074,22.74512,22.8584v28.5166a89.4395,89.4395,0,0,0,.90527,14.71H311.083a120.12167,120.12167,0,0,0,.793-14.71V65.02539c0-5.20508-1.13184-8.93945-3.28223-11.20215a10.50529,10.50529,0,0,0-7.80762-3.28222c-8.4873,0-15.05078,5.43164-20.14258,16.748v22.8584a100.70094,100.70094,0,0,0,.90528,14.71H265.25391a93.01921,93.01921,0,0,0,.90527-14.71v-60.541a105.94718,105.94718,0,0,0-.792-14.82325Z" transform="translate(-8.03516 -13.31152)"/><path d="M358.0459,14.7832V29.1543H341.41113V14.7832Zm-.11328,25.1211a101.62678,101.62678,0,0,0-.792,14.82422V90.03418a113.553,113.553,0,0,0,.792,14.82324H341.41113a101.72544,101.72544,0,0,0,.90528-14.71V54.61523a93.04012,93.04012,0,0,0-.90528-14.71093Z" transform="translate(-8.03516 -13.31152)"/><path d="M385.2041,14.7832l-2.26269,29.98731h-9.2793L371.39844,14.7832Z" transform="translate(-8.03516 -13.31152)"/><path d="M411.23145,84.48926c1.92285,7.69433,6.11035,10.75,14.93652,10.75,8.374,0,13.5791-3.28125,13.5791-8.59961a6.91875,6.91875,0,0,0-2.94238-5.6582c-2.14942-1.47168-2.8291-1.585-11.88184-3.6211-8.93945-1.92383-12.44726-3.05566-16.29492-4.86621-6.44922-3.05566-9.958-8.4873-9.958-15.0498a16.83507,16.83507,0,0,1,3.50879-10.52442c4.63867-5.88379,12.334-8.82617,22.63184-8.82617,9.27832,0,16.63379,2.26367,21.27343,6.56348,2.94239,2.8291,4.52637,5.6582,6.11036,11.20215L437.25781,57.7832c-1.24511-6.22363-5.09277-8.93945-12.44726-8.93945-7.0166,0-11.76856,3.169-11.76856,7.9209A6.09857,6.09857,0,0,0,416.5498,62.084c2.48926,1.24414,4.86524,1.92286,11.31543,3.39454,11.542,2.48925,16.18165,4.07324,19.916,6.90234,4.41309,3.16894,6.56348,7.80859,6.56348,14.03223A18.19689,18.19689,0,0,1,448.7998,99.2002c-5.20507,4.86523-13.126,7.35546-23.42382,7.35546-11.65528,0-20.36914-3.50878-25.23438-10.07128-2.03711-2.71583-3.05566-4.9795-4.41308-10.07129Z" transform="translate(-8.03516 -13.31152)"/><path d="M518.39355,45.44922c0,1.24512,0,2.48926-.11328,3.96094,6.22364-7.92188,12.90039-11.08985,23.085-11.08985,9.05274,0,16.29493,2.71582,21.5,7.9209,5.99707,6.11035,8.93946,14.59766,8.93946,26.02637,0,20.82226-11.42871,33.38281-30.666,33.38281-9.958,0-17.42676-3.50781-22.8584-10.86328,0,1.35742,0,1.35742.11328,3.62109.11329.792.11329,2.82813.11329,4.86524V111.874a112.84767,112.84767,0,0,0,.792,15.04981H503.34375a126.75879,126.75879,0,0,0,.792-14.93653V55.06738a116.98934,116.98934,0,0,0-.792-15.16308h15.0498Zm20.25586,4.97851c-11.20312,0-19.68945,9.2793-19.68945,21.3877,0,12.90039,8.373,21.95312,20.1416,21.95312,11.08985,0,17.99219-8.374,17.99219-21.72656C557.09375,58.68848,550.07812,50.42773,538.64941,50.42773Z" transform="translate(-8.03516 -13.31152)"/><path d="M580.74609,72.49414c0-21.04785,13.127-34.51367,33.72168-34.51367,20.48145,0,33.49512,13.35254,33.49512,34.28711s-13.23926,34.74023-33.38184,34.74023C593.87305,107.00781,580.74609,93.65527,580.74609,72.49414Zm14.59766,0c0,13.91895,7.24219,22.51856,19.01074,22.51856s19.01074-8.48633,19.01074-22.292c0-14.59765-6.90234-22.97168-18.89746-22.97168C602.58594,49.749,595.34375,58.34961,595.34375,72.49414Z" transform="translate(-8.03516 -13.31152)"/><path d="M702.7334,54.16211c-4.75195-1.35742-7.12891-1.81055-10.07129-1.81055-5.65723,0-9.958,1.81055-13.126,5.54492-2.8291,3.28223-3.96093,5.88477-4.63965,11.31641V90.14746a119.0688,119.0688,0,0,0,.792,14.71H659.50684a124.18016,124.18016,0,0,0,.792-14.71V54.61523a89.492,89.492,0,0,0-.792-14.71093h15.38964V50.541c4.07325-8.03418,11.08985-11.88184,21.27442-11.88184a58.68238,58.68238,0,0,1,10.52344,1.24512Z" transform="translate(-8.03516 -13.31152)"/><path d="M738.71875,22.47754a125.29539,125.29539,0,0,0-.792,13.91894V39.9043h4.75293a65.04718,65.04718,0,0,0,11.42871-.67871V52.57812a62.4346,62.4346,0,0,0-11.08985-.67871h-5.09179V86.97852c0,5.54492,2.03711,7.582,7.46875,7.582,2.9414,0,4.752-.56641,8.25976-2.48926l2.03711,11.99414a35.4076,35.4076,0,0,1-14.14453,2.37695c-13.01367,0-18.21875-4.63965-18.21875-16.52148V51.89941h-4.2998a57.17735,57.17735,0,0,0-10.07129.67871V39.22559a52.00452,52.00452,0,0,0,10.18457.67871h4.18652V36.39648a130.38514,130.38514,0,0,0-.792-13.91894Z" transform="translate(-8.03516 -13.31152)"/><path d="M768.93262,51.78613a77.04921,77.04921,0,0,0-10.75.67871V39.22559a74.21828,74.21828,0,0,0,10.63672.67871H773.459V33.90723c0-14.03223,7.12891-20.59571,22.51856-20.59571a40.91649,40.91649,0,0,1,14.03125,2.26368L806.9541,27.457a18.72976,18.72976,0,0,0-10.07129-2.71582c-6.56347,0-8.82617,2.71582-8.82617,10.52344V39.9043H793.375a124.41849,124.41849,0,0,0,12.78711-.67871V52.46484a97.49309,97.49309,0,0,0-12.56055-.67871h-5.54492V90.14746a111.72155,111.72155,0,0,0,.792,14.71H772.667a121.59384,121.59384,0,0,0,.792-14.71V51.78613Z" transform="translate(-8.03516 -13.31152)"/><path d="M815.32812,72.49414c0-21.04785,13.127-34.51367,33.72168-34.51367,20.48145,0,33.49512,13.35254,33.49512,34.28711s-13.23926,34.74023-33.38183,34.74023C828.45508,107.00781,815.32812,93.65527,815.32812,72.49414Zm14.59766,0c0,13.91895,7.24219,22.51856,19.01074,22.51856s19.01075-8.48633,19.01075-22.292c0-14.59765-6.90235-22.97168-18.89747-22.97168C837.168,49.749,829.92578,58.34961,829.92578,72.49414Z" transform="translate(-8.03516 -13.31152)"/><path d="M910.27051,14.7832a104.88346,104.88346,0,0,0-.792,14.82325v60.541a116.61232,116.61232,0,0,0,.792,14.71H893.8623a109.45264,109.45264,0,0,0,.792-14.71V29.49414a101.94914,101.94914,0,0,0-.792-14.71094Z" transform="translate(-8.03516 -13.31152)"/><path d="M941.16406,14.7832V29.1543H924.5293V14.7832Zm-.11328,25.1211a101.76673,101.76673,0,0,0-.792,14.82422V90.03418a113.72555,113.72555,0,0,0,.792,14.82324H924.5293a101.72549,101.72549,0,0,0,.90527-14.71V54.61523a93.04024,93.04024,0,0,0-.90527-14.71093Z" transform="translate(-8.03516 -13.31152)"/><path d="M952.48047,72.49414c0-21.04785,13.127-34.51367,33.72168-34.51367,20.48144,0,33.49512,13.35254,33.49512,34.28711s-13.23926,34.74023-33.38184,34.74023C965.60742,107.00781,952.48047,93.65527,952.48047,72.49414Zm14.59765,0c0,13.91895,7.24219,22.51856,19.01075,22.51856s19.01074-8.48633,19.01074-22.292c0-14.59765-6.90234-22.97168-18.89746-22.97168C974.32031,49.749,967.07812,58.34961,967.07812,72.49414Z" transform="translate(-8.03516 -13.31152)"/>
  



  <a href="https://twitter.com/Mochi_749"><path class="cls-1" d="M405.66854,159.40041a27.53893,27.53893,0,1,1-27.53893,27.53893A27.57018,27.57018,0,0,1,405.66854,159.40041Zm0-5.50779a33.04672,33.04672,0,1,0,33.04672,33.04672A33.04819,33.04819,0,0,0,405.66854,153.89262Zm17.9003,24.17367a13.57,13.57,0,0,1-3.894,1.06852,6.8098,6.8098,0,0,0,2.98247-3.75081,13.56672,13.56672,0,0,1-4.30709,1.64408,6.783,6.783,0,0,0-11.55258,6.18249,19.25687,19.25687,0,0,1-13.97325-7.083,6.78958,6.78958,0,0,0,2.09846,9.052,6.76742,6.76742,0,0,1-3.06783-.8482,6.78823,6.78823,0,0,0,5.43894,6.73327,6.79485,6.79485,0,0,1-3.06233.11566,6.78906,6.78906,0,0,0,6.334,4.7064,13.64469,13.64469,0,0,1-10.04345,2.81173,19.17589,19.17589,0,0,0,10.39044,3.04581c12.5908,0,19.70135-10.63279,19.27174-20.16952A13.66786,13.66786,0,0,0,423.56884,178.06629Z" transform="translate(-8.03516 -13.31152)"/></a>
  
  
  <path class="cls-2" d="M503.83569,160.54672a26.39262,26.39262,0,1,1-26.39262,26.39262A26.42258,26.42258,0,0,1,503.83569,160.54672Zm0-5.27853a31.67115,31.67115,0,1,0,31.67115,31.67115A31.67256,31.67256,0,0,0,503.83569,155.26819Zm0,15.83557a15.83626,15.83626,0,0,0-5.004,30.8609c.79178.1478,1.04515-.3431,1.04515-.76275v-2.948c-4.40493.958-5.3234-1.866-5.3234-1.866a4.18983,4.18983,0,0,0-1.75774-2.31727c-1.43576-.98445.10821-.96333.10821-.96333a3.32472,3.32472,0,0,1,2.42812,1.6337,3.37248,3.37248,0,0,0,4.60815,1.317,3.36626,3.36626,0,0,1,1.00556-2.11669c-3.51814-.40117-7.21311-1.76038-7.21311-7.82541a6.1221,6.1221,0,0,1,1.63107-4.24921,5.70951,5.70951,0,0,1,.15307-4.19643s1.33019-.42492,4.35479,1.62315a15.01448,15.01448,0,0,1,7.931,0c3.02459-2.04807,4.3495-1.62315,4.3495-1.62315a5.70459,5.70459,0,0,1,.15836,4.19115,6.10828,6.10828,0,0,1,1.62842,4.24921c0,6.0835-3.70552,7.42161-7.23157,7.81222a3.77576,3.77576,0,0,1,1.08737,2.93222v4.34423c0,.42228.25337.91582,1.0557.7601a15.83524,15.83524,0,0,0-5.01459-30.85562Z" transform="translate(-8.03516 -13.31152)"/>
  
  <path class="cls-3" d="M602.00284,160.22031a26.719,26.719,0,1,1-26.719,26.719A26.74935,26.74935,0,0,1,602.00284,160.22031Zm0-5.34381a32.06284,32.06284,0,1,0,32.06284,32.06284A32.06427,32.06427,0,0,0,602.00284,154.8765Zm0,18.92242c4.28039,0,4.788.016,6.47937.09351,4.34718.19773,6.37248,2.25776,6.57288,6.57022.07481,1.69131.09084,2.1963.09084,6.47669s-.016,4.78805-.09084,6.47669c-.2004,4.30978-2.223,6.37516-6.57288,6.57288-1.69132.07481-2.19631.09352-6.47937.09352-4.28039,0-4.788-.016-6.47669-.09352-4.3552-.2004-6.37249-2.26844-6.57288-6.57288-.07482-1.68864-.09352-2.19631-.09352-6.47669s.0187-4.788.09352-6.4767c.19772-4.31512,2.223-6.37516,6.57288-6.57288C597.21479,173.81228,597.72245,173.79892,602.00284,173.79892Zm0-2.891c-4.3552,0-4.8976.0187-6.61029.09886-5.82475.26719-9.05775,3.49752-9.32494,9.32227-.07748,1.71269-.09619,2.25776-.09619,6.61029,0,4.3552.01871,4.90027.09619,6.61029.26719,5.82207,3.50019,9.05775,9.32494,9.32494,1.71269.07748,2.25509.09619,6.61029.09619s4.90027-.01871,6.613-.09619c5.81406-.26719,9.06043-3.49752,9.32227-9.32494.07748-1.71.09619-2.25509.09619-6.61029,0-4.35253-.01871-4.8976-.09619-6.61029-.26184-5.81673-3.49752-9.05775-9.32227-9.32227C606.90311,170.92662,606.358,170.90792,602.00284,170.90792Zm0,7.79928a8.23214,8.23214,0,1,0,8.23213,8.23214A8.23244,8.23244,0,0,0,602.00284,178.7072Zm0,13.57594a5.34381,5.34381,0,1,1,5.34648-5.3438A5.34234,5.34234,0,0,1,602.00284,192.28314Zm8.55543-15.823a1.92378,1.92378,0,1,0,1.92644,1.92378A1.92428,1.92428,0,0,0,610.55827,176.46013Z" transform="translate(-8.03516 -13.31152)"/></svg>