<?xml version="1.0" encoding="utf-8"?>
<!-- Generator: Adobe Illustrator 23.0.4, SVG Export Plug-In . SVG Version: 6.00 Build 0)  -->
<!DOCTYPE svg PUBLIC "-//W3C//DTD SVG 1.1//EN" "http://www.w3.org/Graphics/SVG/1.1/DTD/svg11.dtd" [
	<!ENTITY ns_extend "http://ns.adobe.com/Extensibility/1.0/">
	<!ENTITY ns_ai "http://ns.adobe.com/AdobeIllustrator/10.0/">
	<!ENTITY ns_graphs "http://ns.adobe.com/Graphs/1.0/">
	<!ENTITY ns_vars "http://ns.adobe.com/Variables/1.0/">
	<!ENTITY ns_imrep "http://ns.adobe.com/ImageReplacement/1.0/">
	<!ENTITY ns_sfw "http://ns.adobe.com/SaveForWeb/1.0/">
	<!ENTITY ns_custom "http://ns.adobe.com/GenericCustomNamespace/1.0/">
	<!ENTITY ns_adobe_xpath "http://ns.adobe.com/XPath/1.0/">
]>
<svg version="1.1" id="レイヤー_1" xmlns:x="&ns_extend;" xmlns:i="&ns_ai;" xmlns:graph="&ns_graphs;"
	 xmlns="http://www.w3.org/2000/svg" xmlns:xlink="http://www.w3.org/1999/xlink" x="0px" y="0px" viewBox="0 0 1024 148"
	 enable-background="new 0 0 1024 148" xml:space="preserve">
<metadata>
	<sfw  xmlns="&ns_sfw;">
		<slices></slices>
		<sliceSourceBounds  bottomLeftOrigin="true" height="150.167969" width="1023.998047" x="0.000977" y="-592.083984">
			</sliceSourceBounds>
	</sfw>
</metadata>
<g>
	<path d="M49.112305,104.857422c-0.56543-3.621094-2.375977-8.939453-4.978516-15.276367L27.838867,50.767578
		c-2.150391-5.091797-3.168945-8.147461-5.771484-17.313477c0.452148,5.998047,0.905273,15.276367,0.905273,17.766602v37.116211
		c0,7.807617,0.226562,12.107422,0.905273,16.520508H8.035156c0.679688-4.525391,0.905273-8.939453,0.905273-16.520508V31.530273
		c0-7.355469-0.225586-12.107422-0.905273-16.74707h20.708984c0.791992,3.959961,2.262695,8.712891,4.186523,13.46582
		l22.97168,56.126953l22.857422-56.126953c2.263672-5.544922,3.282227-9.166016,4.074219-13.46582h20.821289
		c-0.678711,5.431641-0.905273,9.166016-0.905273,16.74707v56.806641c0,8.260742,0.226562,12.333984,0.905273,16.520508H87.8125
		c0.679688-4.638672,0.905273-8.712891,0.905273-16.520508V50.767578c0.453125-9.844727,0.791992-15.616211,0.905273-17.313477
		c-1.470703,6.110352-3.621094,12.447266-5.205078,16.521484L67.444336,89.807617
		c-2.263672,5.318359-4.299805,11.655273-4.979492,15.049805H49.112305z"/>
	<path d="M115.993164,72.494141c0-21.047852,13.125977-34.513672,33.720703-34.513672
		c20.482422,0,33.495117,13.352539,33.495117,34.287109s-13.239258,34.740234-33.381836,34.740234
		C129.119141,107.007812,115.993164,93.655273,115.993164,72.494141z M130.589844,72.494141
		c0,13.918945,7.242188,22.518555,19.010742,22.518555s19.010742-8.486328,19.010742-22.291992
		c0-14.597656-6.902344-22.97168-18.897461-22.97168C137.832031,49.749023,130.589844,58.349609,130.589844,72.494141z"/>
	<path d="M239.677734,61.630859c-1.244141-3.507812-2.037109-5.091797-3.507812-6.902344
		c-2.71582-3.395508-6.676758-5.206055-11.655273-5.206055c-11.089844,0-17.992188,8.713867-17.992188,22.745117
		c0,14.145508,7.015625,22.858398,18.444336,22.858398c5.658203,0,10.18457-2.262695,13.013672-6.336914
		c1.018555-1.583984,1.583984-2.829102,2.263672-5.658203l14.03125,2.829102c-1.583984,4.526367-2.71582,6.90332-4.75293,9.619141
		c-5.431641,7.467773-14.144531,11.428711-24.894531,11.428711c-19.916016,0-32.816406-13.46582-32.816406-34.400391
		c0-10.636719,3.394531-19.802734,9.618164-26.139648c5.544922-5.658203,13.466797-8.600586,22.745117-8.600586
		c11.089844,0,19.916016,4.300781,25.347656,12.22168c1.47168,2.262695,2.376953,4.073242,3.960938,8.260742L239.677734,61.630859z"
		/>
	<path d="M281.435547,14.783203c-0.56543,4.299805-0.791992,8.486328-0.791992,14.936523v16.181641
		c0,1.47168,0,2.037109-0.226562,4.866211c7.016602-8.826172,13.126953-11.995117,23.423828-11.995117
		c14.484375,0,22.745117,8.260742,22.745117,22.858398v28.516602c0,6.223633,0.226562,10.523438,0.905273,14.709961h-16.408203
		c0.566406-5.091797,0.792969-8.939453,0.792969-14.709961v-25.12207c0-5.205078-1.131836-8.939453-3.282227-11.202148
		c-2.037109-2.150391-4.75293-3.282227-7.807617-3.282227c-8.487305,0-15.050781,5.431641-20.142578,16.748047v22.858398
		c0,5.544922,0.226562,9.844727,0.905273,14.709961h-16.294922c0.678711-4.865234,0.905273-8.259766,0.905273-14.709961V29.606445
		c0-6.789062-0.226562-10.296875-0.791992-14.823242H281.435547z"/>
	<path d="M358.045898,14.783203v14.371094h-16.634766V14.783203H358.045898z M357.932617,39.904297
		c-0.566406,4.186523-0.791992,7.920898-0.791992,14.824219V90.03418c0,6.223633,0.225586,10.071289,0.791992,14.823242h-16.521484
		c0.678711-5.091797,0.905273-9.052734,0.905273-14.709961V54.615234c0-6.223633-0.226562-10.071289-0.905273-14.710938H357.932617z
		"/>
	<path d="M385.204102,14.783203l-2.262695,29.987305h-9.279297l-2.263672-29.987305H385.204102z"/>
	<path d="M411.231445,84.489258c1.922852,7.694336,6.110352,10.75,14.936523,10.75c8.374023,0,13.579102-3.28125,13.579102-8.599609
		c0-2.263672-1.131836-4.413086-2.942383-5.658203c-2.149414-1.47168-2.829102-1.584961-11.881836-3.621094
		c-8.939453-1.923828-12.447266-3.055664-16.294922-4.866211c-6.449219-3.055664-9.958008-8.487305-9.958008-15.049805
		c0-3.960938,1.245117-7.695312,3.508789-10.524414c4.638672-5.883789,12.333984-8.826172,22.631836-8.826172
		c9.27832,0,16.633789,2.263672,21.273438,6.563477c2.942383,2.829102,4.526367,5.658203,6.110352,11.202148l-14.936523,1.923828
		c-1.245117-6.223633-5.092773-8.939453-12.447266-8.939453c-7.016602,0-11.768555,3.168945-11.768555,7.920898
		c0,2.150391,1.244141,4.074219,3.507812,5.319336c2.489258,1.244141,4.865234,1.922852,11.31543,3.394531
		c11.541992,2.489258,16.181641,4.073242,19.916016,6.902344c4.413086,3.168945,6.563477,7.808594,6.563477,14.032227
		c0,4.639648-2.150391,9.618164-5.544922,12.787109c-5.205078,4.865234-13.125977,7.355469-23.423828,7.355469
		c-11.655273,0-20.369141-3.508789-25.234375-10.071289c-2.037109-2.71582-3.055664-4.979492-4.413086-10.071289
		L411.231445,84.489258z"/>
	<path d="M518.393555,45.449219c0,1.245117,0,2.489258-0.113281,3.960938
		c6.223633-7.921875,12.900391-11.089844,23.084961-11.089844c9.052734,0,16.294922,2.71582,21.5,7.920898
		c5.99707,6.110352,8.939453,14.597656,8.939453,26.026367c0,20.822266-11.428711,33.382812-30.666016,33.382812
		c-9.958008,0-17.426758-3.507812-22.858398-10.863281c0,1.357422,0,1.357422,0.113281,3.621094
		c0.113281,0.791992,0.113281,2.828125,0.113281,4.865234v8.600586c0,6.675781,0.226562,10.296875,0.791992,15.049805H503.34375
		c0.56543-5.318359,0.791992-9.166016,0.791992-14.936523V55.067383c0-6.5625-0.226562-10.296875-0.791992-15.163086h15.049805
		V45.449219z M538.649414,50.427734c-11.203125,0-19.689453,9.279297-19.689453,21.387695
		c0,12.900391,8.373047,21.953125,20.141602,21.953125c11.089844,0,17.992188-8.374023,17.992188-21.726562
		C557.09375,58.688477,550.078125,50.427734,538.649414,50.427734z"/>
	<path d="M580.746094,72.494141c0-21.047852,13.126953-34.513672,33.72168-34.513672
		c20.481445,0,33.495117,13.352539,33.495117,34.287109s-13.239258,34.740234-33.381836,34.740234
		C593.873047,107.007812,580.746094,93.655273,580.746094,72.494141z M595.34375,72.494141
		c0,13.918945,7.242188,22.518555,19.010742,22.518555s19.010742-8.486328,19.010742-22.291992
		c0-14.597656-6.902344-22.97168-18.897461-22.97168C602.585938,49.749023,595.34375,58.349609,595.34375,72.494141z"/>
	<path d="M702.733398,54.162109c-4.751953-1.357422-7.128906-1.810547-10.071289-1.810547
		c-5.657227,0-9.958008,1.810547-13.125977,5.544922c-2.829102,3.282227-3.960938,5.884766-4.639648,11.316406v20.93457
		c0,6.110352,0.226562,9.391602,0.791992,14.709961h-16.181641c0.56543-5.543945,0.791992-8.826172,0.791992-14.709961V54.615234
		c0-6.90332-0.113281-10.071289-0.791992-14.710938h15.389648v10.636719c4.073242-8.03418,11.089844-11.881836,21.274414-11.881836
		c2.714844,0,5.431641,0.339844,10.523438,1.245117L702.733398,54.162109z"/>
	<path d="M738.71875,22.477539c-0.452148,3.960938-0.791992,8.827148-0.791992,13.918945v3.507812h4.75293
		c5.318359,0,7.807617-0.113281,11.428711-0.678711v13.352539c-3.734375-0.56543-5.884766-0.678711-11.089844-0.678711h-5.091797
		v35.079102c0,5.544922,2.037109,7.582031,7.46875,7.582031c2.941406,0,4.751953-0.566406,8.259766-2.489258l2.037109,11.994141
		c-4.865234,1.810547-8.260742,2.376953-14.144531,2.376953c-13.013672,0-18.21875-4.639648-18.21875-16.521484V51.899414h-4.299805
		c-4.1875,0-6.336914,0.113281-10.071289,0.678711V39.225586c3.28125,0.56543,5.431641,0.678711,10.18457,0.678711h4.186523
		v-3.507812c0-4.866211-0.339844-9.844727-0.791992-13.918945H738.71875z"/>
	<path d="M768.932617,51.786133c-4.299805,0-7.242188,0.226562-10.75,0.678711V39.225586
		c3.167969,0.452148,6.5625,0.678711,10.636719,0.678711h4.639648v-5.99707c0-14.032227,7.128906-20.595703,22.518555-20.595703
		c5.091797,0,8.826172,0.566406,14.03125,2.263672l-3.054688,11.881836c-3.394531-1.923828-6.223633-2.71582-10.071289-2.71582
		c-6.563477,0-8.826172,2.71582-8.826172,10.523438v4.639648H793.375c4.526367,0,8.03418-0.226562,12.787109-0.678711v13.239258
		c-3.960938-0.452148-7.016602-0.678711-12.560547-0.678711h-5.544922v38.361328c0,6.450195,0.225586,9.731445,0.791992,14.709961
		h-16.181641c0.56543-5.318359,0.791992-8.826172,0.791992-14.709961V51.786133H768.932617z"/>
	<path d="M815.328125,72.494141c0-21.047852,13.126953-34.513672,33.72168-34.513672
		c20.481445,0,33.495117,13.352539,33.495117,34.287109s-13.239258,34.740234-33.381836,34.740234
		C828.455078,107.007812,815.328125,93.655273,815.328125,72.494141z M829.925781,72.494141
		c0,13.918945,7.242188,22.518555,19.010742,22.518555s19.010742-8.486328,19.010742-22.291992
		c0-14.597656-6.902344-22.97168-18.897461-22.97168C837.167969,49.749023,829.925781,58.349609,829.925781,72.494141z"/>
	<path d="M910.270508,14.783203c-0.56543,4.413086-0.791992,8.03418-0.791992,14.823242v60.541016
		c0,5.99707,0.226562,9.731445,0.791992,14.709961h-16.408203c0.566406-4.865234,0.791992-8.146484,0.791992-14.709961v-60.65332
		c0-6.790039-0.225586-10.411133-0.791992-14.710938H910.270508z"/>
	<path d="M941.164062,14.783203v14.371094h-16.634766V14.783203H941.164062z M941.050781,39.904297
		c-0.56543,4.186523-0.791992,7.920898-0.791992,14.824219V90.03418c0,6.223633,0.226562,10.071289,0.791992,14.823242h-16.521484
		c0.678711-5.091797,0.905273-9.052734,0.905273-14.709961V54.615234c0-6.223633-0.226562-10.071289-0.905273-14.710938H941.050781z
		"/>
	<path d="M952.480469,72.494141c0-21.047852,13.126953-34.513672,33.72168-34.513672
		c20.481445,0,33.495117,13.352539,33.495117,34.287109s-13.239258,34.740234-33.381836,34.740234
		C965.607422,107.007812,952.480469,93.655273,952.480469,72.494141z M967.078125,72.494141
		c0,13.918945,7.242188,22.518555,19.010742,22.518555s19.010742-8.486328,19.010742-22.291992
		c0-14.597656-6.902344-22.97168-18.897461-22.97168C974.320312,49.749023,967.078125,58.349609,967.078125,72.494141z"/>
</g>
<g>
</g>
<g>
</g>
<g>
</g>
<g>
</g>
<g>
</g>
<g>
</g>
<g>
</g>
<g>
</g>
<g>
</g>
<g>
</g>
<g>
</g>
<g>
</g>
<g>
</g>
<g>
</g>
<g>
</g>
</svg>
